<svg xmlns="http://www.w3.org/2000/svg" xmlns:xlink="http://www.w3.org/1999/xlink" version="1.1" x="0px" y="0px" viewBox="0 0 100 125" style="enable-background:new 0 0 100 100;" xml:space="preserve">
  <style type="text/css">
    .st0{fill:none;stroke:#ffffff;stroke-width:3.1282;stroke-linecap:round;stroke-miterlimit:10;}
    .st1{fill:none;stroke:#ffffff;stroke-width:4;stroke-linejoin:round;stroke-miterlimit:10;}
    .st2{fill:none;stroke:#ffffff;stroke-width:4;stroke-linecap:round;stroke-miterlimit:10;}
    .st3{fill:none;stroke:#ffffff;stroke-width:3;stroke-linecap:round;stroke-linejoin:round;stroke-miterlimit:10;}
    .st4{fill:none;stroke:#ffffff;stroke-width:3;stroke-linejoin:round;stroke-miterlimit:10;}
  </style>
  <g>
    <path d="M30.2,43.7c0.3,0,0.7-0.1,1-0.4c3.9-3.4,9-1.8,9.3-1.7c0.8,0.3,1.6-0.2,1.9-0.9c0.3-0.8-0.2-1.6-0.9-1.9 c-0.3-0.1-6.9-2.2-12.2,2.3c-0.6,0.5-0.7,1.5-0.2,2.1C29.4,43.5,29.8,43.7,30.2,43.7z"/>
    <path d="M15.8,68.2c-2.3,3.8-1.9,8.7,1,12c1.9,2.1,4.5,3.4,7.4,3.5h0.3c2.7,0,5.3-1.1,7.2-3l1.4-1.4c3.6,0.8,7.3,0.9,10.8,0.3 l0.9,0.9c3.9,3.8,10.1,4.1,14.1,0.6c3.1-2.7,4.2-7.1,2.7-10.9c1-1.3,1.9-2.8,2.8-4.7l0.1,0c3.4,0,6.1-2.7,6.1-6.1l0-8.1 c0-1.6-0.6-3.2-1.7-4.4c-1.1-1.2-2.7-1.8-4.3-1.8h-0.1c-1.5-2.9-3.6-5.6-6.3-7.8l0.3-2.9c0.3-3,0.4-3.9,0.3-4.5 c-0.2-1.5-1.3-2.5-2.8-2.5c0,0,0,0,0,0c-3.3-0.1-9.4,2.9-11.2,3.8c-0.1,0-0.2,0.1-0.3,0c-1.9-0.3-3.9-0.5-5-0.5 C29.1,30.8,19.7,36,15,44.4c-0.1,0.2-0.2,0.3-0.2,0.5c0-0.3,0.2-0.5,0.2-0.5c-1,1.5-2.5,4.3-3,8.4c-1.1,0.6-2.4,0.6-3.5,0 c-0.9-0.5-1.5-1.3-1.8-2.2s-0.2-2,0.3-2.9c0.4-0.7,0.1-1.6-0.6-2c-0.7-0.4-1.6-0.1-2,0.6c-0.9,1.6-1.1,3.4-0.5,5.2 c0.5,1.7,1.7,3.2,3.3,4c1,0.5,2.1,0.8,3.2,0.8c0.5,0,1.1-0.1,1.6-0.2C12,60.3,13.3,64.5,15.8,68.2z M17.4,46c0-0.1,0.1-0.1,0.1-0.2 c4.2-7.4,12.6-12,21.9-12c1,0,3.5,0.3,4.6,0.5c0.7,0.1,1.4,0,2-0.3c3.3-1.7,7.7-3.4,9.7-3.4c0,0.6-0.1,2.2-0.3,3.7l-0.4,3.7 c0,0.5,0.2,1,0.6,1.3c2.8,2.2,5.1,5,6.5,8.1c0.2,0.5,0.8,0.9,1.4,0.9h1c0.8,0,1.6,0.3,2.2,0.9c0.6,0.6,0.9,1.4,0.9,2.2v8.1 c0,1.7-1.4,3.1-3,3.1l-1,0c-0.6,0-1.2,0.3-1.4,0.9c-1.1,2.3-2.2,4.1-3.3,5.4c-0.5,0.6-0.6,1.3-0.3,2c1.3,2.8,0.6,6-1.7,8 c-2.9,2.5-7.2,2.3-10-0.4L45.3,77c-0.3-0.3-0.8-0.5-1.3-0.4c-3.6,0.7-7.5,0.6-11.2-0.3c-0.5-0.1-1,0-1.4,0.4l-1.9,1.9 c-1.3,1.3-3.2,2.1-5,2.1l-0.2,0c-2-0.1-3.8-0.9-5.2-2.4c-2.1-2.4-2.3-6.1-0.5-8.8c0.5-0.8,0.5-1.8,0-2.5c-2.4-3.5-3.7-7.5-3.7-11.5 C14.8,50.7,16.5,47.5,17.4,46z"/>
    <circle cx="51.8" cy="50.3" r="2.7"/>
    <path d="M86.5,80.2c-0.3,0-0.6,0-0.9,0v-11c0-2.4-4.7-3.3-8.8-3.3S68,66.9,68,69.3v16.2c0,2.6,5.5,3.3,8.8,3.3c0.3,0,0.6,0,0.9,0 v1.3c0,2.6,5.5,3.3,8.8,3.3s8.8-0.7,8.8-3.3v-6.5C95.2,81.1,90.5,80.2,86.5,80.2z M93.2,86.6c-0.3,0.4-2.6,1.3-6.8,1.3 s-6.4-0.9-6.8-1.3v-0.9c1.9,0.8,4.8,1.1,6.8,1.1s4.9-0.3,6.8-1.1V86.6z M83.5,72.4c-0.3,0.4-2.6,1.3-6.8,1.3s-6.4-0.9-6.8-1.3v-0.9 c1.7,0.7,4.4,1,6.8,1s5-0.3,6.8-1V72.4z M76.8,75.8c2.4,0,5-0.3,6.8-1v0.9c-0.3,0.4-2.6,1.3-6.8,1.3s-6.4-0.9-6.8-1.3v-0.9 C71.7,75.5,74.4,75.8,76.8,75.8z M76.8,79c2.4,0,5-0.3,6.8-1v0.9c-0.3,0.4-2.6,1.3-6.8,1.3s-6.4-0.9-6.8-1.3v-0.9 C71.7,78.7,74.4,79,76.8,79z M70,81.2c1.9,0.8,4.8,1.1,6.8,1.1c0.5,0,1,0,1.5,0c-0.3,0.4-0.5,0.8-0.6,1.2c-0.3,0-0.6,0-0.9,0 c-4.1,0-6.4-0.9-6.8-1.3V81.2z M93.1,83.5c-0.6,0.5-2.8,1.3-6.7,1.3s-6.1-0.8-6.7-1.3c0.6-0.5,2.8-1.3,6.7-1.3S92.6,83,93.1,83.5z M76.8,68c3.9,0,6.1,0.8,6.7,1.3c-0.6,0.5-2.8,1.3-6.7,1.3s-6.1-0.8-6.7-1.3C70.6,68.8,72.9,68,76.8,68z M70,85.3v-0.9 c1.7,0.7,4.4,1,6.8,1c0.3,0,0.6,0,0.9,0v1.2c-0.3,0-0.6,0-0.9,0C72.6,86.7,70.3,85.8,70,85.3z M79.7,89.9v-0.9c1.7,0.7,4.4,1,6.8,1 s5-0.3,6.8-1v0.9c-0.3,0.4-2.6,1.3-6.8,1.3S80,90.3,79.7,89.9z"/>
  </g>
</svg>
