<svg xmlns="http://www.w3.org/2000/svg" xmlns:xlink="http://www.w3.org/1999/xlink" version="1.1" x="0px" y="0px" viewBox="0 0 100 125" style="enable-background:new 0 0 100 100;" xml:space="preserve">
  <style type="text/css">
    .st0{fill:none;stroke:#ffffff;stroke-width:3.1282;stroke-linecap:round;stroke-miterlimit:10;}
    .st1{fill:none;stroke:#ffffff;stroke-width:4;stroke-linejoin:round;stroke-miterlimit:10;}
    .st2{fill:none;stroke:#ffffff;stroke-width:4;stroke-linecap:round;stroke-miterlimit:10;}
    .st3{fill:none;stroke:#ffffff;stroke-width:3;stroke-linecap:round;stroke-linejoin:round;stroke-miterlimit:10;}
    .st4{fill:none;stroke:#ffffff;stroke-width:3;stroke-linejoin:round;stroke-miterlimit:10;}
  </style>
  <g>
    <ellipse transform="matrix(0.7071 -0.7071 0.7071 0.7071 4.5636 42.4245)" class="st3" cx="53.5" cy="15.7" rx="6.7" ry="6.7"/>
    <path class="st3" d="M46.5,16c-3.7,0-6.7,3-6.7,6.7s3,6.7,6.7,6.7c3.7,0,6.7-3,6.7-6.7"/>
  </g>
  <g>
    <path class="st3" d="M43.2,48.6c0.3,0,0.7-0.1,1-0.4c3.9-3.4,9-1.8,9.3-1.7c0.8,0.3,1.6-0.2,1.9-0.9c0.3-0.8-0.2-1.6-0.9-1.9 c-0.3-0.1-6.9-2.2-12.2,2.3c-0.6,0.5-0.7,1.5-0.2,2.1C42.4,48.4,42.8,48.6,43.2,48.6z"/>
    <circle class="st3" cx="64.8" cy="55.2" r="2.7"/>
    <path class="st3" d="M20,60.2c1,0.5,2.1,0.8,3.2,0.8c0.5,0,1.1-0.1,1.6-0.2c0.1,4.3,1.5,8.5,4,12.2c-2.3,3.8-1.9,8.7,1,12 c1.9,2.1,4.5,3.4,7.4,3.5h0.3c2.7,0,5.3-1.1,7.2-3l1.4-1.4c3.6,0.8,7.3,0.9,10.8,0.3l0.9,0.9c3.9,3.8,10.1,4.1,14.1,0.6 c3.1-2.7,4.2-7,2.7-10.9c1-1.3,1.9-2.8,2.8-4.7l0.1,0c3.4,0,6.1-2.7,6.1-6.1l0-8.1c0-1.6-0.6-3.2-1.7-4.4S79.1,50,77.5,50h-0.1 c-1.5-2.9-3.6-5.6-6.3-7.8l0.3-2.9c0.3-3,0.4-4,0.3-4.5c-0.1-1.5-1.3-2.5-2.8-2.5c0,0,0,0,0,0c-3.4-0.1-9.4,2.9-11.2,3.8 c-0.1,0-0.2,0.1-0.3,0c-1.2-0.2-3.7-0.5-5-0.5c-10.4,0-19.8,5.2-24.5,13.5c-0.1,0.2-0.2,0.3-0.2,0.5c0-0.3,0.2-0.5,0.2-0.5 c-1,1.5-2.5,4.3-3,8.4c-1.1,0.6-2.4,0.6-3.5,0c-0.9-0.5-1.5-1.3-1.8-2.2c-0.3-1-0.2-2,0.3-2.9c0.4-0.7,0.1-1.6-0.6-2 c-0.7-0.4-1.6-0.1-2,0.6c-0.9,1.6-1.1,3.4-0.5,5.2S18.5,59.4,20,60.2z M30.5,50.9c0-0.1,0.1-0.1,0.1-0.2c4.2-7.4,12.6-12,21.9-12 c1.1,0,3.5,0.3,4.6,0.5c0.7,0.1,1.4,0,2-0.3c3.3-1.7,7.7-3.4,9.7-3.4c0,0.6-0.1,2.2-0.3,3.7l-0.4,3.7c-0.1,0.5,0.2,1,0.6,1.3 c2.8,2.2,5.1,5,6.5,8.1c0.2,0.5,0.8,0.9,1.4,0.9h1c0.8,0,1.6,0.3,2.2,0.9c0.6,0.6,0.9,1.4,0.9,2.2v8.1c0,1.7-1.4,3.1-3,3.1l-1,0 c-0.6,0-1.2,0.3-1.4,0.9c-1.1,2.3-2.2,4.1-3.3,5.4c-0.5,0.6-0.6,1.3-0.3,2c1.3,2.8,0.6,6-1.7,8c-2.9,2.5-7.2,2.3-10-0.4l-1.4-1.4 c-0.3-0.3-0.8-0.5-1.3-0.4c-3.6,0.7-7.5,0.6-11.2-0.3c-0.5-0.1-1,0-1.4,0.4l-1.9,1.9c-1.3,1.3-3.2,2.1-5,2.1l-0.2,0 c-2-0.1-3.8-0.9-5.2-2.4c-2.1-2.4-2.3-6.1-0.5-8.8c0.5-0.8,0.5-1.8,0-2.5c-2.4-3.5-3.7-7.5-3.7-11.5C27.8,55.5,29.5,52.3,30.5,50.9 z"/>
  </g>
</svg>
